<svg xmlns="http://www.w3.org/2000/svg" xmlns:xlink="http://www.w3.org/1999/xlink" width="195.261" height="197.178" viewBox="0 0 195.261 197.178">
  <defs>
    <clipPath id="clip-path">
      <path id="path16" d="M177.625-2879.993H0v99.914H177.625Z" transform="translate(0 2879.993)" fill="#2a294f"/>
    </clipPath>
  </defs>
  <g id="g10" transform="matrix(0.695, -0.719, 0.719, 0.695, 0, 127.773)">
    <g id="g12">
      <g id="g14" clip-path="url(#clip-path)">
        <g id="g20" transform="translate(44.118 28.786)">
          <path id="path22" d="M-871.8-742.205l-.134.026c-.558-.829-1.12-1.656-1.674-2.488a36.3,36.3,0,0,1-4.876-10.468,13.387,13.387,0,0,1-.5-5.975,12.128,12.128,0,0,1,1.19-3.77A2.815,2.815,0,0,1-876.731-766a1.849,1.849,0,0,1,2.255.232,7.708,7.708,0,0,1,1.854,2.623,27.43,27.43,0,0,1,2.128,8.992A30.632,30.632,0,0,1-870.46-750a31.6,31.6,0,0,1-.785,5.805c-.162.669-.371,1.327-.559,1.989m.3,4.017.4.432a38.024,38.024,0,0,0,18.248,11.079,25.52,25.52,0,0,0,6.476.961c1.339.019,2.68-.066,4.019-.127.831-.038,1.66-.13,2.491-.174.273-.014.342-.142.348-.437a6.123,6.123,0,0,0-.629-.072c-1.2-.016-2.4-.038-3.607-.031a31.019,31.019,0,0,1-13.194-2.978A36,36,0,0,1-865.4-734.8a36.351,36.351,0,0,1-4.918-5.257.687.687,0,0,1-.052-.114c.115-.242.241-.5.364-.766a21.727,21.727,0,0,0,1.846-6.887,38.96,38.96,0,0,0,.167-6.783,31.562,31.562,0,0,0-1.328-7.067,15.928,15.928,0,0,0-1.633-3.863,8.263,8.263,0,0,0-2.75-2.818,3.175,3.175,0,0,0-2.2-.487c-.3.048-.613.063-.914.122a3.275,3.275,0,0,0-1.362.656,8.917,8.917,0,0,0-3.3,5.2,15.625,15.625,0,0,0,.235,7.95,35.354,35.354,0,0,0,4.547,9.818,61.113,61.113,0,0,0,3.622,5.025c.076.095.144.2.232.318-.137.259-.263.522-.41.772a16.591,16.591,0,0,1-6.672,6.362,23.17,23.17,0,0,1-8.745,2.655,31.667,31.667,0,0,1-4.894.045,46.791,46.791,0,0,1-16.331-4.4,49.738,49.738,0,0,1-7.514-4.256c-3.418-2.319-6.817-4.666-10.223-7-.237-.163-.466-.337-.7-.506l.029-.1c.358.018.72.01,1.074.06,1.743.245,3.5.268,5.252.374.583.035,1.164.1,1.747.15a1.611,1.611,0,0,0,.277,0c.309-.027.475-.151.513-.375a.536.536,0,0,0-.38-.687c-.852-.208-1.7-.43-2.57-.559-1.736-.259-3.482-.455-5.221-.688-.366-.049-.721-.176-1.087-.218a1.648,1.648,0,0,0-1.686.518c-.013.413.344.839-.038,1.269.348.187.353.484.4.8.269,1.671.566,3.338.862,5a6.8,6.8,0,0,0,.6,2.077,2.688,2.688,0,0,0,.29.468.592.592,0,0,0,.33.22,3.048,3.048,0,0,0,.863-.009c.109-.02.233-.216.264-.352a3.642,3.642,0,0,0,.119-.943,11.538,11.538,0,0,0-.713-2.717c-.24-.828-.517-1.646-.775-2.469-.04-.127-.068-.259-.127-.489.217.15.352.241.484.335,3.85,2.753,7.734,5.457,11.723,8a52.59,52.59,0,0,0,18.376,7.269,33.733,33.733,0,0,0,7.822.574,25.034,25.034,0,0,0,11.021-2.955,20.666,20.666,0,0,0,7.093-6.3c.063-.088.124-.176.189-.262a.815.815,0,0,1,.106-.089" transform="translate(930.435 768.88)" fill="#2a294f"/>
        </g>
      </g>
    </g>
  </g>
</svg>
